<?xml version="1.0" encoding="utf-8"?>
<!-- Generator: Adobe Illustrator 18.1.1, SVG Export Plug-In . SVG Version: 6.00 Build 0)  -->
<!DOCTYPE svg PUBLIC "-//W3C//DTD SVG 1.1//EN" "http://www.w3.org/Graphics/SVG/1.1/DTD/svg11.dtd">
<svg version="1.1" id="Layer_1" xmlns="http://www.w3.org/2000/svg" xmlns:xlink="http://www.w3.org/1999/xlink" x="0px" y="0px"
	 viewBox="0 0 360 360" enable-background="new 0 0 360 360" xml:space="preserve">
<g>
	<g>
		<path fill="#F5F3E2" d="M65,211.1v-1.4c0-15.6,8.2-24.3,20.7-24.3c4.9,0,8.6,1.5,10.9,3.2l-5,9.1c-1.2-0.9-3-1.9-5.7-1.9
			c-5,0-9,4.3-9,14.2v0.8c0,10.2,3.8,14.4,8.8,14.4c2.9,0,4.8-1.2,6.3-2.1l5.1,8.8c-2.4,1.8-6.5,3.6-11.9,3.6
			C73.8,235.4,65,227.8,65,211.1z"/>
		<path fill="#F5F3E2" d="M97.4,211.1v-1.4c0-16.7,9.1-24.3,19.5-24.3c10.3,0,19.5,7.6,19.5,24.3v1.4c0,16.9-9.1,24.4-19.5,24.4
			C106.5,235.4,97.4,227.9,97.4,211.1z M124.4,210.9v-1.1c0-10.1-3.2-14.4-7.5-14.4c-4.3,0-7.5,4.3-7.5,14.4v1.1
			c0,10.2,3.2,14.4,7.5,14.4C121.1,225.4,124.4,221.1,124.4,210.9z"/>
		<path fill="#F5F3E2" d="M140.8,185.9h14.4c12.3,0,20.6,7.9,20.6,23.4v2.2c0,15-8,23.4-20.6,23.4h-14.4V185.9z M154.5,224.6
			c5.8,0,9.3-3.9,9.3-13.6v-1.5c0-9.8-3.5-13.5-9.3-13.5h-2v28.6H154.5z"/>
		<path fill="#F5F3E2" d="M180.3,185.9h26v9.8h-14.5v9.9h11.6v9.4h-11.6v10h15v9.8h-26.5V185.9z"/>
		<path fill="#F5F3E2" d="M218.9,211.1v-1.4c0-16.7,9.1-24.3,19.5-24.3c10.4,0,19.5,7.6,19.5,24.3v1.4c0,16.9-9.1,24.4-19.5,24.4
			C228.1,235.4,218.9,227.9,218.9,211.1z M245.9,210.9v-1.1c0-10.1-3.2-14.4-7.5-14.4c-4.3,0-7.5,4.3-7.5,14.4v1.1
			c0,10.2,3.2,14.4,7.5,14.4C242.7,225.4,245.9,221.1,245.9,210.9z"/>
		<path fill="#F5F3E2" d="M272.9,219.9v14.9h-10.5v-49.4h1.7l19.3,23.8c0,0-0.2-4.5-0.2-7.5v-15.7h10.5v49.4H292l-19.3-23
			C272.7,212.3,272.9,216.7,272.9,219.9z"/>
	</g>
	<g>
		<path fill="#F5F3E2" d="M45.1,258h-9.3v-10.2H66V258h-9.3v38.7H45.1V258z"/>
		<path fill="#F5F3E2" d="M70.4,247.8H82v19.6h10.5v-19.6h11.6v48.9H92.5v-19H82v19H70.4V247.8z"/>
		<path fill="#F5F3E2" d="M110.2,247.8h26v9.8h-14.5v9.9h11.6v9.4h-11.6v10h15v9.8h-26.5V247.8z"/>
		<g>
			<path fill="#F5F3E2" d="M151.4,247.8h15.2c8.3,0,14.8,4.8,14.8,12.8v0.6c0,4.5-3.1,7.9-6.8,9.1c4.7,1.6,8.6,4.5,8.6,11.4v0.7
				c0,9.2-6.3,14.2-17.7,14.2h-14.1V247.8z M165.4,266.8c3.2,0,5-1.6,5-4.5v-0.4c0-3-1.9-4.5-4.9-4.5h-3.2v9.5H165.4z M165.4,287.1
				c4,0,6.4-1.9,6.4-5.5V281c0-3.7-2.3-5.5-6.4-5.5h-3v11.6H165.4z"/>
			<path fill="#F5F3E2" d="M187.6,247.8h26v9.8h-14.5v9.9h11.6v9.4h-11.6v10h15v9.8h-26.5V247.8z"/>
			<path fill="#F5F3E2" d="M241.4,291.6h-12.1l-1.6,5h-10.9l18.2-49.4h1.6l18,49.4H243L241.4,291.6z M232,283.2h6.6l-1.9-6.2
				c-0.7-2.3-1.3-4.7-1.4-5c-0.1,0.1-0.6,2.7-1.3,5L232,283.2z"/>
			<path fill="#F5F3E2" d="M253.5,272.9v-1.4c0-15.6,8.2-24.3,20.7-24.3c4.9,0,8.6,1.5,10.9,3.2l-5,9.1c-1.2-0.9-2.9-1.9-5.7-1.9
				c-5,0-9,4.3-9,14.2v0.8c0,10.2,3.8,14.4,8.8,14.4c2.9,0,4.8-1.1,6.3-2.1l5.1,8.8c-2.4,1.8-6.5,3.6-11.9,3.6
				C262.3,297.3,253.5,289.7,253.5,272.9z"/>
			<path fill="#F5F3E2" d="M289.2,247.8h11.6v19.6h10.5v-19.6h11.6v48.9h-11.6v-19h-10.5v19h-11.6V247.8z"/>
		</g>
	</g>
</g>
<g>
	<path fill-rule="evenodd" clip-rule="evenodd" fill="#F5F3E2" d="M175.6,97.4c3.8,5.6,5.2,12.4,5.6,18.8c0-0.7-0.3-1-0.8-1.2
		c0.2,1.1,0.6,2.1,0.8,3.2c2,0,3.4,2.3,5.2,1.2c0.4-1.3-1-0.8-1.2-1.6c0.9-0.5,1.5,1,1.6,0c-0.5-0.6-2.9-1.4-2-2
		c0,0.5,1.1,0.5,1.2,0c-0.9-0.1-1.7-0.4-2-1.2c1-0.3,1.8,1.6,2.4,0.4c-2.3-0.9-4.2-4.3-4.4-6c3.7,1.3,7,3.2,7.2,8
		c1.2-3,5-4.5,6.8-5.6c-2.2-0.4-2.8-2.5-3.6-4.4c0.1,0.9-0.1,1.5-0.8,1.6c-0.5-1.5-1.8-2.2-2.4-3.6c-0.1,0.6,0.1,1.5-0.4,1.6
		c-2.5-4.6-8.4-6-11.3-9.2C176.6,97.5,176.4,98.2,175.6,97.4z"/>
	<path fill-rule="evenodd" clip-rule="evenodd" fill="#F5F3E2" d="M178.4,118.6c0.1-1.7,0-3-0.8-2.8c-0.2-1.8-0.1-3.9-1.2-4.8
		c0.1-1.5-0.3-3.5,0.4-4.4c-1.1,0.2,0.3-2.2-0.8-2c0,1.7,0.1,3.6-0.8,4.4c0-2.5,0.1-6-0.8-2.4c-0.6-1.8,0.8-3.9-0.8-5.2
		c-0.6,1.2,0.5,1.5-0.8,2c-0.2-2.2,0-4.8-1.2-6c-2.9,8.1-3.3,18.5-4.4,28.3C170.2,123.4,172.9,119.5,178.4,118.6z"/>
	<path fill-rule="evenodd" clip-rule="evenodd" fill="#F5F3E2" d="M177.6,93c1.1-1.4,3.1-0.8,4.4-1.2c-0.9-0.5-1.6-1.1-2.4-1.6
		C180,92.2,178.2,90.6,177.6,93z"/>
	<path fill-rule="evenodd" clip-rule="evenodd" fill="#F5F3E2" d="M164.4,95.8c1.9-1.3,3.8-0.4,5.2-2.4
		C167,94.1,165.6,93.7,164.4,95.8z"/>
	<path fill-rule="evenodd" clip-rule="evenodd" fill="#F5F3E2" d="M166,85.9c1,0.7,2.1,1.4,3.6,1.6C169.9,85.8,165.2,85.4,166,85.9z
		"/>
	<path fill-rule="evenodd" clip-rule="evenodd" fill="#F5F3E2" d="M168.9,165.2L168.9,165.2c0,3.8,2.8,8,6.1,9.6
		c1.9-17.6,3.9-35.2,10.3-48.3c-6.5,4.7-10.4,12.1-15.7,18c0.3-1.8-0.4-1.1-0.8-1.6c1.8-8.1,5.9-13.9,11.7-18c0-0.5-0.1-0.9-0.8-0.8
		c-4,1.6-7.9,5-11.7,5.6C166.1,141.6,167.3,153.9,168.9,165.2z"/>
	<path fill-rule="evenodd" clip-rule="evenodd" fill="#F5F3E2" d="M193.1,119.5c-1.4-0.4-4.5,2-3.4,2.7
		C189.4,120.7,191,122.4,193.1,119.5z"/>
	<path fill-rule="evenodd" clip-rule="evenodd" fill="#F5F3E2" d="M179.4,63c-39.8,0-72.1,32.3-72.1,72.1c0,14.7,4.4,28.3,11.9,39.7
		c3.2-1.7,5.4-5,5.4-8.8c0-0.4,0.4-0.8,0.8-0.8c0.4,0,0.8,0.4,0.8,0.8c0,5.5,4.5,10,10,10c5.5,0,10-4.5,10-10c0-0.4,0.4-0.8,0.8-0.8
		c0.4,0,0.8,0.4,0.8,0.8c0,5.5,4.5,10,10,10c3.6,0,6.7-1.9,8.4-4.7c-1.6-23.4-3.7-51.6,2.6-71.8c-4.5,4.7-7.2,9.9-10.1,16.8
		c-0.5-0.1-0.6-0.7-1.2-0.8c0.3,1.6-0.4,2.3-0.4,3.6c-0.5-0.1-0.6-0.7-1.2-0.8c0.2,3.4-1.8,4.6-2,7.6c-0.5-0.1-0.3-1-0.4-1.6
		c-0.4,2.2-2,3-2,5.6c-0.7,1.1-0.3-2.3-0.4-3.2c-0.9-0.2-0.8,0.6-0.8,1.2c-1.2-1.3,0.8-2.9,0.4-4.8c-1.8,1.6,0.9-3.2,1.2-4.4
		c-0.5-1.2-0.3,1.5-1.6,0.8c0.7-0.9,1.2-2,2-2.8c0-0.5-0.3-0.4-0.6-0.1c-0.1,0.3-0.2,0.6-0.2,0.9c-0.1-0.3,0-0.7,0.2-0.9
		c0.7-3,1.5-7.4,5-7.9c-0.1-0.5-1-0.3-1.6-0.4c2.2-5.2,5.7-7.1,7.6-10.8c-1.5,0.2-1.2-1.6,0.4-0.8c0-2.2-3.2,0.5-1.6,1.2
		c-4,0.7-6.7,6-11.3,7.6v1.6c-1.9-1.5-1.4,2.2-2.8,2.4c-0.9,0.2-0.6-0.8-1.2-0.8c-0.9,0.1,0.5,1,0,2c-0.5,1-0.4-1.9-1.2-2
		c-0.4,0.3-0.6,0.7-0.8,1.2c-0.9,0.9,0.3-1.1,0-2c-0.5,0.6-1.2,1-1.2,2c-0.7-1.2,1.4-2.9,1.6-4.4c-1.7-0.1,1-3.6,2.4-4.4
		c-0.3-1-1.1,0.7-2,0.4c3.8-4.3,6.6-9.6,12.9-10.4c0.5-2.1,3.1,0,3.2-2c0.9,0.3,2,0.4,2.8,0.8c-0.2-1.4-3.5-2.3-3.6-0.4
		c-1-0.1-0.1-1.4,0-1.6c-0.4,0.4-1.5,0.1-1.2,1.2c-4.8-2.3-9.7-1.3-14.9,1.2c-0.7-0.3,0.6-2.1,0.8-2.8c-0.5-0.1-0.7,0.1-0.8,0.4
		c2.4-8,18.8-4.9,24.5-2.4c-1-1.7-7.4-2-1.2-2c-0.5-1.5-2.7-1.3-4.4-1.6c0.1-0.9,1.1-0.9,1.6-0.4c0.1-1.4-2.1-0.5-2.8-1.2
		c-0.2-1.3-1.5-1.9-3.2-2.8c2-1.2,8.1-0.5,8.4,2.4c3.3-1.1,4.3,6.1,5.2,10c1.5-2.9,1.1-7.7,2.8-10.4c0.9-0.2,0.8,0.6,0.8,1.2
		c0.7,0.3,0.7-1.9,0-1.6c0.9,0.1,1.9-1.7,2.8-2.8c1.7,1,2.3-0.6,4-0.8c-1,1.3-2.1,1.4-0.8,3.2c-1.7-0.5-1.6,0.8-2.8,0.8
		c0.3,1.2,1-0.5,2,0c-0.8,1.7-3.8,1.3-4.4,3.2c1.7,0.2,1.8-1.2,3.6-0.8c-1,0.9-2.5,1.2-3.6,2c0.4,1.1,1.2-0.6,2.4,0
		c-1.1,1.1-2.9,1.3-3.6,2.8c5.6-1.7,8-3.6,14.1-3.6c-0.2,0.8-0.8,1.3-1.2,2c1.4,0.1,1.3-1.4,2-2c2.5,1.1,2.4,1,5.6,2
		c-0.5,0.7-2.1,0.3-2.8,0.8c0.8,0.9,2.7-0.5,4.4,0c1.3,0.7-2,0.1-2,0.8c0.9,1,2.6,1.1,4,1.6c0.1,1.5-0.3,0.1-1.2,0.4
		c0.9,1.9,3.2,2.4,4.4,4c-0.6,0.5-2-1.5-3.2-1.6c-0.7,0.5,1.3,1.6,1.6,2.4c-0.5,0.2-1.4-0.2-2.4-0.4c-0.1,0.7,0.5,0.8,0.4,1.6
		c-0.5-0.1-0.7-1.7-0.8,0c-1.2-0.3,0.4-0.9,0-1.6c-0.4,0.4-0.8,0.8-1.2,1.2c-1-1.5-3.6-0.3-4-2.8c-1.4,0.3,1.2,1.9,0,2
		c-1.9-0.9-2.5-3.2-3.6-4.8c-0.7,1.3,1.7,3.1,2,4.8c-1.1-0.4-1.9-1.4-1.2,0.4c-1.1-1.7-4.9-0.7-6-2.4c-0.3,1.5,1.5,2.3,3.2,2.8
		c0,0.4-0.5,0.3-0.8,0.4c1.1,0.6,2.6,0.9,3.6,1.6c-0.1,0.5-0.7,0.6-0.8,1.2c0.5-0.5,1.4-0.5,2.4-0.4c0,0.4-0.5,0.3-0.8,0.4
		c2.5,2.4,4.6,4.2,7.2,7.2c0.6,1.4-1.5-1.6-2-0.4c1.3,0.4,1.3,2.2,2.8,2.4c-0.7,2.7,2.5,4.3,3.6,6.4c-1,0.8-1.6-2.1-2.8-2.4
		c0.1,1.2,0.9,1.8,1.2,2.8c0.5,0.9-1.6-1.7-2-2.4c-1.5,0.8-1.1,1.4-2.8,1.2c0,0.7,0.5,0.8,0.4,1.6c-1.2,0.4-1.5,1.7-3.2,1.6
		c0.1,0.5,0.7,0.3,1.2,0.4c-1.7,0.4-0.3,1.7-2.4,2c4.4,1,11.4-0.8,14.9,2.8c-0.9,1.5,0.8,1.9,2,2.4c-1.5,0.6,0.2,2,1.2,2.4
		c-1.3,0-1.2,0.8-0.8,2.4c-0.7-1.9-5.3-0.2-4.8-2.4c0-0.9-1.1,0.1-0.8,0.8c-1.4-1.8-1.8,0.2-3.6-1.2c-1.2,1.6,1.4,2.9,2.4,3.6
		c0.8,2.4,2.1,4.3,3.6,6c-1.4,2.7,3.5,6.6,0.4,8.4c-0.2-0.7,0.3-0.8,0.8-0.8c-0.1-0.9-1.5,0-1.6,0.4c-0.8-0.1-0.1-1.7-0.8-2
		c-0.8,0.1-0.1,1.7-0.8,2c-1-0.2,0.4-2.8-1.6-2c0.3-1.2-0.4-1.5-0.4-2.4c-3.7-2.3-6-9.1-11.3-11.2c3.9,3.7,2.5,10.6,1.6,16.8
		c-0.7-0.7-1.5-1.5-1.2-3.2c-0.2-0.1-0.5,0.6-0.4,0.8c-1.4-2.2-0.8-5.9-0.4-9.6c-0.6,0.6-1,1.4-1.2,2.4c-1.2-1,0.5-2.4,0.4-3.6
		c-0.5,0.3-0.8,0.9-0.8,1.6c-1.2-0.8,0.5-2.1,0-3.6c-1.7,1.5-1.3-1.6-0.8-3.6c-7.4,13.2-10.3,30.8-10.8,50.8
		c0.5,0.1,1.1,0.2,1.7,0.2c0.7,0,1.4-0.1,2-0.2c0.1-0.1,0.2-0.3,0.3-0.4c0,0.1,0.1,0.2,0.1,0.3c4.4-1.1,7.7-5,7.7-9.7
		c0-0.4,0.4-0.8,0.8-0.8c0.4,0,0.8,0.4,0.8,0.8c0,5.5,4.5,10,10,10c5.5,0,10-4.5,10-10c0-0.4,0.3-0.8,0.8-0.8c0.4,0,0.8,0.4,0.8,0.8
		c0,5.5,4.5,10,10,10c5.5,0,10-4.5,10-10c0-0.4,0.4-0.8,0.8-0.8c0.4,0,0.8,0.4,0.8,0.8c0,3.8,2.2,7.2,5.4,8.8
		c7.5-11.4,11.9-25,11.9-39.7C251.4,95.2,219.2,63,179.4,63z"/>
	<path fill-rule="evenodd" clip-rule="evenodd" fill="#F5F3E2" d="M174,91.5c0.4-2,1.8-3,3.2-4h-2C175.2,88.9,172.9,90.1,174,91.5z"
		/>
	<path fill-rule="evenodd" clip-rule="evenodd" fill="#F5F3E2" d="M184.9,122.2c-1.3,0.1-2.4,0.3-2.4,1.6c1.1,0,2-0.3,2.8,0.4
		C184.8,122.9,185.4,123.5,184.9,122.2z"/>
</g>
</svg>
